PathFileType	4	(X/Y/Z)	C:/Users/beibeiliu/ov580/test_trc\sequence.20_training_dense_left.trc
DataRate	CameraRate	NumFrames	NumMarkers	Units	OrigDataRate	OrigDataStartFrame	OrigNumFrames
120	120	8	19	mm	120	253	336
Frame#	Time	ThumbCMC			ThumbMCP			ThumbIP			ThumbTip			IndexMCP			IndexPIP			IndexTip			MiddleMCP			MiddlePIP			MiddleTip			RingMCP			RingPIP			RingTip			PinkyMCP			PinkyPIP			PinkyTip			BackHand1			BackHand2			BackHand3	
		X0	Y0	Z0	X1	Y1	Z1	X2	Y2	Z2	X3	Y3	Z3	X4	Y4	Z4	X5	Y5	Z5	X6	Y6	Z6	X7	Y7	Z7	X8	Y8	Z8	X9	Y9	Z9	X10	Y10	Z10	X11	Y11	Z11	X12	Y12	Z12	X13	Y13	Z13	X14	Y14	Z14	X15	Y15	Z15	X16	Y16	Z16	X17	Y17	Z17	X18	Y18	Z18	
252	2.1	-188.896	70.1035	27.6667	-176.409	82.1154	-1.6071	-174.301	90.8797	-19.3586	-177.077	100.422	-40.7036	-205.89	130.597	14.6248	-211.599	153.214	-6.0982	-208.899	156.749	-32.4707	-232.603	134.406	12.4915	-234.609	152.748	-7.88872	-227.636	142.051	-40.361	-245.76	120.598	12.3941	-248.278	138.664	-5.0482	-244.496	135.478	-32.1149	-261.346	103.36	8.44161	-257.789	120.723	-10.2626	-247.566	119.126	-30.8918	-237.031	85.7686	34.3349	-233.294	66.6185	50.716	-213.013	84.9635	46.0205	
253	2.10833	-183.696	67.1513	26.1217	-178.092	77.6825	-1.57909	-171.5	89.7563	-21.3382	-173.105	99.6346	-42.6139	-204.577	133.256	13.1341	-201.475	152.591	-2.45691	-198.539	157.823	-29.7862	-226.149	136.74	12.5073	-228.333	155.819	-5.68336	-225.485	146.015	-37.1462	-243.367	125.887	12.4376	-245.4	142.486	-6.57384	-237.891	136.88	-34.3103	-256.653	107.86	9.83193	-254.626	125.081	-9.20037	-248.472	125.299	-30.1039	-236.854	91.2712	34.0781	-234.19	70.7776	49.1356	-207.737	85.7187	42.6587	
254	2.11667	-185.963	70.6715	24.175	-173.282	76.3817	-3.31234	-170.372	86.3303	-21.0734	-173.692	99.259	-43.6295	-194.886	130.774	13.1467	-192.937	152.635	-4.04195	-191.927	155.852	-33.4989	-222.186	133.204	14.1317	-223.307	157.113	-5.99921	-218.909	146.069	-40.1534	-237.644	125.229	13.7086	-236.231	146.365	-7.80966	-233.23	139.653	-33.7291	-254.084	109.997	10.3532	-249.898	128.313	-4.96335	-241.411	128.3	-29.055	-232.016	92.8527	34.3086	-230.426	70.9366	47.7259	-205.832	83.6907	43.8622	
255	2.125	-185.983	69.271	23.7532	-173.863	73.6935	-1.85198	-168.064	84.2237	-21.9101	-172.966	97.1784	-43.3369	-190.599	130.053	13.5606	-189.114	153.205	-6.14984	-187.836	156.692	-30.5634	-212.348	137.723	13.2994	-218.606	157.082	-5.29624	-216.052	148.142	-37.6039	-229.656	127.287	14.0417	-232.468	148.635	-7.42364	-224.53	143.504	-33.552	-247.27	116.066	11.6858	-249.076	131.544	-3.78635	-239.101	132.61	-29.2989	-228.997	93.9728	33.5256	-228.752	72.7657	48.6175	-206.781	83.7128	44.7985	
256	2.13333	-182.249	65.1448	25.2441	-171.022	71.6485	-3.16621	-169.591	84.6848	-21.69	-168.873	96.1942	-45.3101	-182.557	127.598	12.935	-176.264	151.729	-6.94682	-177.866	155.835	-32.6765	-211.268	136.613	14.0825	-210.647	159.879	-5.11665	-208.298	151.72	-35.8664	-223.772	132.971	13.6451	-224.592	151.295	-4.65988	-219.437	145.855	-30.5063	-243.223	117.755	12.7744	-237.988	136.923	-1.0935	-232.471	138.338	-24.2068	-226.855	96.6384	33.0356	-227.389	75.7632	50.1541	-205.117	85.0443	45.1287	
257	2.14167	-179.927	62.4631	24.5137	-168.915	70.1569	-4.20662	-168.197	80.0577	-21.2718	-169.604	91.9821	-43.3767	-174.376	130.327	12.6845	-172.992	149.995	-6.90157	-171.777	153.823	-29.8266	-198.559	138.997	16.168	-202.477	160.72	-7.72101	-198.879	151.072	-35.2827	-218.617	130.244	16.1137	-216.93	152.811	-2.16781	-209.806	147.502	-27.6841	-237.433	121.09	13.1701	-232.776	140.074	-2.34207	-228.36	142.715	-25.413	-221.795	99.349	33.2156	-225.796	77.4526	51.4667	-200.368	88.8984	41.7385	
258	2.15	-180.919	62.1373	23.9816	-172.991	64.6903	-2.28721	-162.545	76.3175	-25.4612	-165.522	88.7628	-43.2701	-169.279	126.016	12.3725	-163.455	145.779	-4.35648	-161.703	150.691	-29.2039	-194.595	138.145	17.706	-188.97	160.301	-5.38418	-194.848	149.439	-34.8878	-209.237	135.225	16.944	-203.275	154.26	-2.38648	-204.232	147.105	-30.8023	-227.75	126.886	15.5852	-225.961	145.12	-2.10685	-220.069	143.336	-21.0061	-219.236	99.5567	37.2523	-219.443	79.6643	51.7333	-196.31	85.5452	43.5408	
259	2.15833	-177.292	61.3441	22.7174	-168.386	64.0461	-4.35784	-161.451	77.4217	-24.6337	-161.482	86.2459	-45.3625	-163.416	123.304	14.4317	-150.25	139.833	-2.20381	-150.285	145.805	-28.7263	-184.311	137.119	19.7322	-180.024	159.143	1.32271	-182.141	149.576	-33.3649	-203.376	136.852	19.3971	-197.01	154.019	2.50856	-193.446	146.845	-27.0281	-221.757	124.734	18.0394	-220.416	145.866	1.69735	-209.99	143.759	-21.5213	-215.548	100.528	41.2025	-217.179	79.4588	52.945	-187.505	84.2128	46.3399	
